<?xml version="1.0" ?><!DOCTYPE svg  PUBLIC '-//W3C//DTD SVG 1.1//EN'  'http://www.w3.org/Graphics/SVG/1.1/DTD/svg11.dtd'><svg enable-background="new 0 0 500 500" height="500px" id="Layer_1" version="1.1" viewBox="0 0 500 500" width="500px" xml:space="preserve" xmlns="http://www.w3.org/2000/svg" xmlns:xlink="http://www.w3.org/1999/xlink"><g><g><path d="M250.293,143.479c-59.196,0-107.184,47.988-107.184,107.184c0,59.196,47.988,107.184,107.184,107.184     c59.196,0,107.184-47.988,107.184-107.184C357.477,191.467,309.489,143.479,250.293,143.479z M312.598,312.967     c-8.098,8.098-17.523,14.454-28.013,18.891c-10.851,4.589-22.388,6.916-34.291,6.916c-11.903,0-23.441-2.327-34.291-6.916     c-10.49-4.437-19.915-10.793-28.013-18.891c-8.098-8.098-14.454-17.523-18.891-28.013c-4.589-10.851-6.917-22.388-6.917-34.291     c0-11.903,2.327-23.441,6.917-34.291c4.437-10.49,10.793-19.915,18.891-28.013c8.098-8.098,17.523-14.454,28.013-18.891     c10.85-4.589,22.388-6.916,34.291-6.916c11.903,0,23.441,2.327,34.291,6.916c10.49,4.437,19.915,10.793,28.013,18.891     c8.098,8.098,14.454,17.523,18.891,28.013c4.589,10.851,6.916,22.388,6.916,34.291c0,11.903-2.327,23.441-6.916,34.291     C327.052,295.444,320.696,304.869,312.598,312.967z"/><path d="M260.903,248.153c-0.738-0.718-0.903-1.704-0.903-2.734v-68.187c0-2.107-2.212-4.232-4.319-4.232h-11.443     c-2.107,0-4.238,2.125-4.238,4.232v76.243c0,1.03,0.628,2.016,1.367,2.734l27.516,26.656c1.51,1.469,3.978,1.435,5.447-0.075     l8.004-8.203c1.469-1.51,1.574-3.925,0.064-5.394L260.903,248.153z"/><path d="M295.474,213.449c1.49,1.49,3.905,1.49,5.395,0l7.967-7.967c1.49-1.49,1.49-3.905,0-5.394l-7.967-7.967     c-1.49-1.49-3.905-1.49-5.395,0l-7.967,7.967c-1.49,1.49-1.49,3.905,0,5.394L295.474,213.449z"/><path d="M205.113,287.876c-1.49-1.49-3.905-1.49-5.394,0l-7.967,7.967c-1.49,1.49-1.49,3.905,0,5.394l7.967,7.967     c1.49,1.49,3.905,1.49,5.394,0l7.967-7.967c1.49-1.49,1.49-3.905,0-5.394L205.113,287.876z"/><path d="M205.113,192.121c-1.49-1.49-3.905-1.49-5.394,0l-7.967,7.967c-1.49,1.49-1.49,3.905,0,5.394l7.967,7.967     c1.49,1.49,3.905,1.49,5.394,0l7.967-7.967c1.49-1.49,1.49-3.905,0-5.394L205.113,192.121z"/><path d="M300.868,287.876c-1.49-1.49-3.905-1.49-5.395,0l-7.967,7.967c-1.49,1.49-1.49,3.905,0,5.394l7.967,7.967     c1.49,1.49,3.905,1.49,5.395,0l7.967-7.967c1.49-1.49,1.49-3.905,0-5.394L300.868,287.876z"/><path d="M260,312.814c0-2.107-1.708-3.814-3.814-3.814h-11.371c-2.107,0-3.814,1.708-3.814,3.814v11.371     c0,2.107,1.708,3.814,3.814,3.814h11.371c2.107,0,3.814-1.708,3.814-3.814V312.814z"/><path d="M327,246.814c0-2.107-1.708-3.814-3.814-3.814h-11.371c-2.107,0-3.814,1.708-3.814,3.814v11.371     c0,2.107,1.708,3.814,3.814,3.814h11.371c2.107,0,3.814-1.708,3.814-3.814V246.814z"/><path d="M192,244.814c0-2.107-1.708-3.814-3.814-3.814h-11.371c-2.107,0-3.814,1.708-3.814,3.814v11.371     c0,2.107,1.708,3.814,3.814,3.814h11.371c2.107,0,3.814-1.708,3.814-3.814V244.814z"/></g></g></svg>